<svg xmlns="http://www.w3.org/2000/svg" viewBox="0 0 60 60" id="Pencil"><path style="line-height:normal;text-indent:0;text-align:start;text-decoration-line:none;text-decoration-style:solid;text-decoration-color:#000;text-transform:none;block-progression:tb;isolation:auto;mix-blend-mode:normal" fill-rule="evenodd" d="m 44.058588,6.28906 c -1.02553,0 -2.05076,0.38866 -2.82812,1.16602 l -3.08008,3.08008 c -1.23189,-0.43055 -2.66026,-0.16786 -3.63867,0.81054 -0.97877,0.97877 -1.23982,2.40648 -0.8086,3.63868 L 7.2890579,41.39648 a 1.0001,1.0001 0 0 0 -0.29101,0.64063 l -0.70703,10.60742 a 1.0001,1.0001 0 0 0 1.06445,1.06445 L 17.962888,53.00195 a 1.0001,1.0001 0 0 0 0.64063,-0.29101 l 26.4121,-26.41406 c 1.23187,0.43048 2.6603,0.16782 3.63868,-0.81055 0.97814,-0.97816 1.24062,-2.40504 0.81054,-3.63672 l 3.08008,-3.08008 c 1.55473,-1.55471 1.55473,-4.10153 0,-5.65625 l -5.6582,-5.6582 c -0.77736,-0.77736 -1.80259,-1.16602 -2.82813,-1.16602 z m 0,1.98438 c 0.50818,0 1.01621,0.19785 1.41407,0.5957 l 5.6582,5.6582 c 0.79571,0.79571 0.79571,2.03242 0,2.82813 l -2.82813,2.82812 -8.48632,-8.48632 2.82812,-2.82813 c 0.39785,-0.39785 0.90588,-0.5957 1.41406,-0.5957 z m -7.07226,4.03515 c 0.38037,0 0.76063,0.15126 1.06055,0.45118 l 9.19335,9.1914 c 0.59984,0.59983 0.59983,1.52126 0,2.1211 -0.59984,0.59983 -1.52125,0.59983 -2.12109,0 l -9.19336,-9.19141 c -0.59983,-0.59984 -0.59984,-1.52125 0,-2.12109 0.29992,-0.29992 0.68018,-0.45118 1.06055,-0.45118 z m -2.11914,4.33985 1.41406,1.41406 -2.82813,2.82812 a 0.50005,0.50005 0 1 0 0.70704,0.70704 l 2.82812,-2.82813 1.41406,1.41406 -24.94336,24.94336 -0.60937,-2.22461 a 1.0001,1.0001 0 0 0 -0.69531,-0.70117 L 9.9335879,41.58008 34.867188,16.64844 Z m 4.94922,4.94922 3.53515,3.53515 -24.91406,24.91602 -0.63477,-2.19531 1.96485,-1.96485 a 0.50005,0.50005 0 0 0 -0.36328,-0.85742 0.50005,0.50005 0 0 0 -0.34375,0.15039 l -1.9668,1.9668 -2.2207,-0.60742 24.94336,-24.94336 z m -15.91993,7.62695 a 0.50005,0.50005 0 0 0 -0.34375,0.15039 l -5.09961,5.09961 a 0.50005,0.50005 0 1 0 0.70704,0.70703 l 5.09961,-5.09766 a 0.50005,0.50005 0 0 0 -0.36329,-0.85937 z m -6.96679,6.9668 a 0.50005,0.50005 0 0 0 -0.34375,0.15234 l -0.81055,0.81055 a 0.50005,0.50005 0 1 0 0.70703,0.70703 l 0.81055,-0.81055 a 0.50005,0.50005 0 0 0 -0.36328,-0.85937 z m 5.19922,6.11523 a 0.50005,0.50005 0 0 0 -0.34375,0.15039 l -0.85743,0.85742 a 0.50063915,0.50063915 0 1 0 0.70899,0.70703 l 0.85547,-0.85742 a 0.50005,0.50005 0 0 0 -0.36328,-0.85742 z m -13.2148501,1.06641 2.1562501,0.60156 0.91211,3.3418 a 1.0001,1.0001 0 0 0 0.70117,0.70117 l 3.34766,0.91406 0.62305,2.15234 -5.92383,0.39454 -2.2089901,-2.20899 0.39258,-5.89648 z" color="#000" font-family="sans-serif" font-weight="400" overflow="visible" fill="#da2877" class="color000000 svgShape"></path></svg>